<?xml version="1.0" standalone="no"?>
<!DOCTYPE svg PUBLIC "-//W3C//DTD SVG 20010904//EN"
 "http://www.w3.org/TR/2001/REC-SVG-20010904/DTD/svg10.dtd">
<svg version="1.0" xmlns="http://www.w3.org/2000/svg"
 width="175.000000pt" height="175.000000pt" viewBox="0 0 175.000000 175.000000"
 preserveAspectRatio="xMidYMid meet">
<metadata>
Created by potrace 1.11, written by Peter Selinger 2001-2013
</metadata>
<g transform="translate(0.000000,175.000000) scale(0.100000,-0.100000)"
fill="#000000" stroke="none">
<path d="M786 1450 c-5 -25 -10 -83 -11 -130 -1 -47 -6 -123 -10 -170 -4 -47
-8 -113 -9 -147 -1 -34 -5 -65 -9 -69 -4 -4 -7 -32 -7 -62 0 -59 -5 -65 -14
-17 -4 17 -12 50 -20 75 l-15 45 -1 -35 c-1 -19 -1 -46 -1 -60 1 -14 -27 34
-64 105 -36 72 -72 135 -79 140 -7 6 -20 25 -30 43 -18 34 -43 42 -52 17 -5
-12 -10 -13 -19 -5 -14 11 -16 7 -32 -52 -4 -13 -7 -118 -7 -235 -1 -198 -5
-245 -19 -208 -4 8 -3 15 2 15 14 0 6 103 -13 154 -22 63 -77 156 -92 156 -11
0 -26 23 -28 42 -1 9 -74 58 -102 68 -36 14 -64 2 -62 -29 1 -14 8 -34 16 -43
12 -14 12 -18 2 -18 -24 0 -2 -80 33 -121 20 -22 45 -73 62 -121 16 -46 45
-118 66 -161 38 -77 89 -229 89 -262 0 -10 5 -13 12 -9 6 4 8 3 5 -4 -4 -5 -4
-18 -1 -27 6 -13 9 -14 16 -3 7 10 8 8 4 -5 -3 -10 5 -39 17 -65 14 -27 22
-60 20 -78 -3 -36 33 -97 60 -102 28 -6 68 47 61 81 -3 22 0 30 14 34 13 3 22
22 32 66 8 34 13 70 12 80 0 9 3 15 9 12 5 -4 9 -5 10 -3 14 69 9 95 -24 143
-19 28 -40 50 -47 50 -10 0 -15 19 -17 65 -1 36 -5 77 -8 92 -2 15 -1 30 4 32
11 7 33 -43 25 -56 -4 -6 -2 -8 4 -4 5 3 12 3 15 -1 2 -5 2 -2 0 5 -15 63 -5
49 57 -73 39 -77 76 -144 82 -150 7 -7 9 -7 5 0 -3 6 -1 17 4 25 6 10 7 4 4
-21 -4 -26 1 -47 18 -80 14 -24 31 -65 38 -91 7 -27 17 -48 22 -48 4 0 15 -16
23 -35 8 -19 18 -35 22 -35 9 0 25 29 36 63 3 10 11 15 16 12 7 -5 10 10 9 42
-2 68 -1 69 22 39 27 -35 39 -33 39 6 l0 32 25 -34 c13 -18 26 -37 27 -42 2
-5 11 -10 20 -11 9 -2 22 -8 30 -15 21 -17 96 -42 145 -49 29 -3 63 2 108 17
62 21 67 21 85 5 16 -15 24 -15 55 -5 l36 12 -24 22 c-23 22 -24 23 -6 34 10
7 25 9 32 6 10 -3 16 3 19 20 3 14 1 27 -4 28 -5 2 -6 11 -3 21 6 13 11 14 26
6 23 -12 27 9 7 30 -9 10 -9 12 -1 7 6 -3 14 -2 18 4 3 5 0 10 -7 10 -9 0 -9
3 2 10 10 6 11 10 3 10 -18 0 -16 39 3 75 18 32 29 143 27 261 -2 115 -84 328
-155 404 -13 13 -21 33 -20 43 2 12 -1 17 -7 12 -6 -3 -9 -11 -6 -16 12 -18
-13 -8 -40 17 -38 35 -43 22 -11 -26 14 -22 22 -40 17 -40 -6 0 -12 4 -15 9
-3 5 -18 13 -33 19 -26 9 -28 8 -27 -19 1 -28 66 -163 85 -174 5 -4 24 -37 43
-73 91 -186 101 -252 47 -345 -18 -31 -39 -57 -46 -57 -15 0 -38 -34 -29 -42
2 -3 -7 -3 -22 0 -17 3 -25 1 -21 -5 4 -6 -7 -13 -26 -17 -41 -8 -52 -5 -52
14 0 8 -9 16 -20 18 -16 3 -18 1 -7 -9 6 -7 12 -19 12 -26 0 -14 -29 -12 -102
8 -42 11 -113 72 -103 89 3 5 -2 10 -12 10 -25 1 17 23 75 41 23 6 42 15 42
19 0 15 -53 17 -101 5 l-49 -13 0 48 c0 65 17 148 39 190 101 196 141 277 141
288 0 7 7 23 15 36 16 23 26 136 12 136 -15 0 -80 -65 -137 -137 -46 -57 -60
-69 -71 -60 -11 10 -11 9 0 -5 17 -22 -9 -63 -46 -73 -19 -4 -23 -9 -14 -18
15 -15 14 -28 -6 -73 -9 -22 -18 -44 -19 -51 -3 -17 -34 -144 -40 -165 -4 -12
0 -18 10 -18 9 0 16 -4 16 -10 0 -5 -6 -7 -14 -4 -9 4 -12 -4 -11 -30 2 -19 6
-40 10 -48 4 -7 -1 -5 -11 5 -18 17 -19 36 -19 297 0 273 -1 280 -21 294 -17
12 -21 27 -23 76 -2 60 -1 62 29 73 34 13 37 40 4 45 -16 2 -23 -6 -34 -38
-16 -49 -28 -60 -25 -22 1 15 -1 52 -5 82 l-6 55 -8 -45z m-336 -339 c0 -11 3
-28 6 -38 4 -14 4 -15 -4 -3 -17 27 -24 60 -13 60 6 0 11 -9 11 -19z m553
-488 c-7 -2 -19 -2 -25 0 -7 3 -2 5 12 5 14 0 19 -2 13 -5z m-118 -30 c-11 -3
-25 -9 -30 -14 -11 -8 -40 -7 -51 3 -3 4 6 5 20 4 14 -2 26 1 26 5 0 5 12 8
28 8 20 -1 22 -2 7 -6z m-109 -31 c-10 -2 -22 0 -28 6 -6 6 0 7 19 4 21 -5 23
-7 9 -10z m259 -31 c0 -8 -6 -15 -13 -17 -7 -1 -8 0 -2 3 18 9 10 25 -10 20
-11 -3 -17 -1 -14 4 9 15 39 6 39 -10z m-52 -28 c-7 -2 -13 -14 -14 -26 0 -12
-3 -16 -6 -9 -7 18 4 42 19 41 10 0 10 -2 1 -6z m-395 -54 c-3 -8 -7 -3 -11
10 -4 17 -3 21 5 13 5 -5 8 -16 6 -23z m25 1 c3 -11 1 -20 -4 -20 -5 0 -9 9
-9 20 0 11 2 20 4 20 2 0 6 -9 9 -20z m164 -16 c-3 -3 -12 -4 -19 -1 -8 3 -5
6 6 6 11 1 17 -2 13 -5z m200 -26 c-3 -8 -6 -5 -6 6 -1 11 2 17 5 13 3 -3 4
-12 1 -19z m-132 2 c3 -6 -1 -7 -9 -4 -18 7 -21 14 -7 14 6 0 13 -4 16 -10z
m65 -47 c0 -7 -39 17 -46 28 -3 6 5 3 20 -6 14 -10 26 -19 26 -22z m80 7 c0
-5 -5 -10 -11 -10 -5 0 -7 5 -4 10 3 6 8 10 11 10 2 0 4 -4 4 -10z"/>
<path d="M865 1250 c-8 -12 2 -30 17 -30 7 0 7 4 -1 13 -6 8 -8 17 -4 20 3 4
4 7 0 7 -3 0 -9 -4 -12 -10z"/>
<path d="M629 1116 c16 -19 44 -21 39 -3 -3 6 -15 14 -28 15 -21 3 -22 2 -11
-12z"/>
<path d="M1126 821 c-3 -5 1 -11 9 -15 15 -6 29 7 18 18 -9 9 -21 8 -27 -3z"/>
<path d="M1480 276 c0 -10 28 -13 41 -5 10 6 7 9 -13 9 -16 0 -28 -2 -28 -4z"/>
<path d="M620 244 c0 -8 5 -12 10 -9 6 4 8 11 5 16 -9 14 -15 11 -15 -7z"/>
<path d="M1150 122 c6 -13 14 -21 18 -18 3 4 -2 14 -12 24 -18 16 -18 16 -6
-6z"/>
</g>
</svg>
